<?xml version="1.0" standalone="no"?>
<!DOCTYPE svg PUBLIC "-//W3C//DTD SVG 20010904//EN"
 "http://www.w3.org/TR/2001/REC-SVG-20010904/DTD/svg10.dtd">
<svg version="1.0" xmlns="http://www.w3.org/2000/svg"
 width="480.000000pt" height="480.000000pt" viewBox="0 0 480.000000 480.000000"
 preserveAspectRatio="xMidYMid meet">
<metadata>
Created by potrace 1.11, written by Peter Selinger 2001-2013
</metadata>
<g transform="translate(0.000000,480.000000) scale(0.100000,-0.100000)"
fill="#000000" stroke="none">
<path d="M2318 4473 c8 -6 -3 -9 -30 -8 -24 1 -55 -5 -70 -12 -15 -7 -36 -13
-47 -13 -11 0 -28 -11 -37 -25 -9 -13 -24 -27 -34 -30 -10 -3 -23 -19 -30 -36
-8 -18 -18 -28 -26 -25 -8 3 -14 2 -14 -2 0 -4 -9 -13 -20 -20 -22 -13 -47 -5
-82 27 -10 10 -39 22 -65 29 -67 17 -342 20 -368 4 -17 -10 -13 -11 24 -5 32
4 42 3 37 -5 -4 -7 -14 -12 -23 -12 -9 0 -47 -16 -85 -35 -37 -20 -68 -31 -68
-25 0 7 -30 -18 -66 -54 -36 -36 -63 -70 -59 -76 3 -5 8 -10 11 -10 3 0 2 5
-1 10 -3 6 -1 10 5 10 8 0 9 -14 5 -44 -9 -55 11 -73 21 -19 3 21 13 46 22 56
14 16 14 19 -3 31 -18 13 -17 13 8 11 15 -2 37 5 51 16 38 30 40 -1 3 -52 -17
-24 -34 -46 -38 -49 -4 -3 -13 -24 -20 -48 -8 -28 -17 -41 -26 -38 -7 3 -12
-2 -11 -12 3 -38 -4 -51 -34 -66 -38 -19 -52 -20 -42 -3 6 9 4 9 -7 2 -8 -6
-28 -10 -46 -10 -17 0 -30 -2 -27 -6 2 -4 -12 -16 -31 -28 -41 -24 -45 -41
-10 -41 14 0 25 -3 25 -8 0 -10 -38 -42 -50 -42 -6 0 -9 -3 -8 -7 1 -5 -2 -18
-6 -31 -9 -28 -2 -39 16 -25 7 6 34 14 60 17 41 6 48 5 48 -10 0 -12 -6 -15
-21 -11 -17 5 -18 3 -7 -10 10 -13 7 -20 -20 -44 -22 -20 -32 -38 -32 -57 0
-16 -8 -37 -17 -48 -10 -10 -18 -27 -18 -37 0 -10 -13 -26 -30 -35 -31 -17
-56 -44 -49 -51 2 -2 10 2 19 9 10 8 15 9 15 1 0 -6 8 -11 18 -11 14 0 17 -11
19 -73 0 -39 5 -83 11 -97 11 -29 -3 -70 -25 -70 -7 0 -13 -4 -13 -10 0 -5 -6
-10 -13 -10 -7 0 -22 -7 -33 -15 -18 -14 -17 -15 11 -9 17 4 34 11 40 15 13
12 28 11 20 -1 -3 -5 -2 -10 3 -10 5 0 8 -32 7 -71 -3 -100 2 -121 26 -108 13
6 25 6 38 0 10 -6 21 -7 25 -4 3 3 6 1 6 -5 0 -7 -5 -12 -11 -12 -5 0 -8 -4
-5 -9 3 -5 -3 -11 -13 -14 -13 -3 -18 0 -15 8 4 9 -3 11 -20 8 -31 -6 -33 -26
-6 -53 28 -28 25 -47 -10 -53 -16 -4 -30 -12 -30 -18 0 -7 3 -10 6 -6 4 3 13
-1 21 -9 8 -8 19 -12 24 -8 5 3 13 -6 19 -20 9 -26 30 -36 30 -15 0 5 5 7 10
4 6 -3 10 -1 10 4 0 6 -5 11 -12 11 -6 0 -8 3 -4 7 16 17 34 -28 25 -60 -6
-21 -5 -33 1 -35 6 -2 6 -10 0 -23 -6 -10 -7 -19 -2 -19 5 0 9 -18 8 -40 0
-22 -5 -40 -11 -40 -5 0 -3 -5 5 -10 10 -6 11 -10 3 -10 -9 0 -13 -16 -13 -45
0 -47 -13 -57 -39 -32 -7 6 -1 -7 13 -31 15 -23 24 -47 21 -52 -8 -13 13 -90
25 -90 11 0 31 94 21 98 -11 4 21 108 40 130 8 9 14 23 15 30 3 38 5 43 15 36
7 -4 10 8 8 38 -2 32 4 56 19 81 13 24 21 53 21 84 -1 58 3 75 30 133 11 25
21 53 21 63 0 9 4 25 10 35 18 31 80 186 80 200 0 7 5 10 12 6 8 -5 9 -2 5 9
-3 10 -2 17 3 17 6 0 10 12 10 28 0 22 2 24 11 12 8 -12 9 -9 5 13 -4 15 -2
27 4 27 5 0 9 3 8 8 -1 4 3 17 10 30 7 12 10 27 7 32 -3 6 1 10 9 10 9 0 16 3
17 8 1 4 2 21 4 38 3 33 75 188 83 179 8 -8 42 26 42 42 0 7 11 18 25 25 13 6
22 15 19 19 -2 5 10 21 27 36 18 15 44 39 59 53 30 29 99 65 118 61 6 -1 12 2
12 7 0 10 5 11 82 18 64 7 131 -17 121 -42 -3 -9 2 -14 14 -14 10 0 29 -7 41
-16 12 -8 26 -13 31 -9 5 3 13 0 17 -6 4 -8 9 -7 15 2 7 11 12 12 29 2 11 -7
28 -13 39 -13 10 0 21 -7 25 -15 3 -8 13 -15 21 -15 9 0 13 -4 10 -10 -3 -5 1
-10 10 -10 9 0 29 -6 43 -14 15 -8 46 -20 70 -27 23 -7 42 -16 42 -21 0 -4 7
-8 16 -8 8 0 13 -4 10 -9 -3 -4 1 -17 9 -27 8 -10 15 -13 15 -7 0 9 7 10 24 3
13 -5 27 -6 32 -2 4 4 4 2 1 -4 -8 -15 47 -39 64 -28 8 5 9 3 4 -6 -6 -9 0
-10 26 -4 41 9 70 8 78 -3 3 -5 17 -9 31 -10 27 -1 32 -2 97 -23 48 -15 166
-107 156 -123 -3 -6 -1 -7 5 -3 7 4 24 -11 41 -36 17 -24 35 -49 41 -56 6 -7
8 -17 5 -23 -4 -6 0 -18 8 -27 14 -16 29 -53 32 -77 2 -16 17 -69 23 -80 9
-14 8 -176 0 -181 -4 -3 -3 -16 2 -29 5 -14 6 -25 1 -25 -5 0 -11 -14 -15 -31
-4 -23 -10 -30 -21 -25 -13 4 -13 2 -5 -14 13 -24 13 -33 0 -25 -6 4 -7 -5 -4
-24 5 -23 2 -32 -15 -40 -12 -7 -21 -16 -21 -22 0 -6 5 -7 10 -4 6 3 10 1 10
-4 0 -6 -10 -10 -22 -8 -17 1 -22 -3 -20 -15 5 -33 -20 -29 -53 7 -21 24 -37
35 -45 30 -9 -5 -11 -4 -6 3 10 16 -16 52 -36 52 -10 0 -18 4 -18 9 0 14 -29
41 -43 41 -7 0 -6 -4 3 -10 22 -14 3 -12 -23 2 -22 13 -49 18 -99 20 -16 0
-28 5 -28 9 0 12 -37 11 -45 -1 -3 -5 -26 -10 -51 -10 -25 0 -43 -3 -41 -7 3
-5 -10 -9 -28 -10 -32 -3 -85 -42 -85 -63 0 -5 -12 -15 -27 -22 -19 -9 -28
-22 -29 -38 -1 -13 -7 -26 -13 -28 -6 -2 -11 -16 -11 -30 0 -22 -2 -24 -11
-12 -9 12 -10 11 -6 -7 3 -13 1 -23 -3 -23 -4 0 -7 -32 -6 -71 2 -52 -2 -72
-12 -78 -10 -6 -11 -10 -3 -15 6 -4 11 -2 11 4 0 6 4 9 9 5 5 -3 12 -1 16 5 7
12 36 14 34 3 -3 -18 3 -30 31 -63 16 -19 27 -36 25 -38 -8 -9 88 -92 106 -92
10 0 21 -5 24 -10 4 -6 10 -8 15 -5 4 3 7 -3 6 -13 -1 -12 5 -16 19 -14 11 1
45 -6 75 -15 74 -24 92 -20 121 30 13 23 23 44 22 47 -1 3 21 6 48 8 41 2 48
0 43 -13 -4 -8 -1 -15 6 -15 7 0 10 -8 7 -20 -3 -11 -1 -18 4 -14 14 8 11 -2
-9 -36 -10 -16 -22 -27 -26 -23 -4 4 -4 0 -1 -9 4 -9 1 -19 -4 -23 -6 -3 -9
-10 -6 -14 2 -5 -7 -17 -21 -27 -43 -31 -55 -45 -48 -56 4 -7 2 -8 -5 -4 -6 4
-9 12 -6 17 3 5 -1 6 -9 3 -12 -5 -13 -10 -4 -24 7 -10 15 -17 19 -14 4 2 12
-3 19 -11 11 -13 10 -14 -4 -9 -21 8 -21 -4 1 -28 14 -15 14 -19 3 -16 -8 2
-18 8 -22 13 -5 6 -8 3 -8 -6 0 -9 -13 -27 -29 -41 -22 -20 -32 -24 -42 -15
-10 10 -11 9 -3 -3 16 -23 15 -60 0 -54 -8 3 -16 -2 -19 -10 -4 -9 -15 -16
-26 -16 -11 0 -22 -4 -26 -10 -3 -5 -12 -7 -20 -3 -8 3 -15 1 -15 -3 0 -5 -11
-9 -24 -9 -13 0 -22 3 -19 8 2 4 -3 7 -11 7 -15 0 -42 38 -38 53 1 4 -1 6 -6
5 -11 -4 -62 38 -62 51 0 6 -5 11 -12 11 -6 0 -8 3 -5 7 4 3 -5 15 -20 25 -16
10 -23 18 -18 18 6 0 3 5 -5 10 -10 7 -11 10 -2 10 9 0 9 7 -3 30 -9 17 -22
30 -30 30 -8 0 -15 7 -15 16 0 9 -17 -2 -45 -30 -36 -37 -52 -46 -80 -46 -19
0 -35 -5 -35 -10 0 -7 -6 -7 -18 -1 -11 6 -24 6 -34 0 -11 -6 -19 -6 -23 1 -3
5 -15 10 -26 10 -11 0 -19 7 -19 17 0 9 -3 14 -6 10 -4 -3 -20 1 -36 9 -16 8
-34 12 -40 8 -7 -4 -8 -3 -4 4 11 18 -59 15 -74 -3 -7 -8 -16 -12 -21 -9 -5 3
-9 -3 -9 -14 0 -10 18 -38 39 -62 32 -36 38 -48 29 -63 -5 -11 -19 -22 -29
-24 -10 -3 -19 -12 -19 -20 0 -11 -7 -13 -30 -8 -20 4 -30 3 -30 -5 0 -7 -7
-10 -15 -6 -8 3 -15 2 -15 -3 0 -10 -33 -22 -67 -25 -12 -1 -19 2 -17 6 9 15
-44 8 -56 -7 -8 -10 -17 -12 -24 -6 -8 7 -18 1 -31 -20 -13 -18 -29 -29 -43
-29 -37 0 -50 -19 -44 -70 6 -51 23 -73 48 -63 15 5 14 3 -3 -14 -20 -20 -48
-24 -71 -9 -6 4 -12 2 -12 -3 0 -6 -8 -11 -18 -11 -9 0 -23 -9 -30 -20 -7 -12
-24 -25 -37 -30 -14 -5 -25 -16 -25 -23 0 -8 -9 -22 -20 -32 -18 -16 -21 -17
-44 -1 -32 21 -36 20 -31 -4 4 -20 26 -53 72 -107 13 -14 23 -30 23 -35 0 -5
4 -7 10 -3 15 9 80 -33 80 -53 0 -5 9 -17 21 -28 25 -23 51 -69 42 -77 -7 -8
22 -37 38 -37 6 0 22 -11 34 -24 13 -14 26 -22 29 -19 3 4 6 -1 6 -10 0 -9 5
-17 10 -17 6 0 10 -8 10 -18 0 -10 6 -24 13 -31 10 -10 9 -11 -5 -6 -12 5 -18
2 -18 -8 0 -13 -6 -14 -32 -6 -18 6 -53 12 -78 15 -25 3 -46 10 -48 15 -2 5
-10 9 -18 9 -7 0 -30 9 -49 20 -20 11 -40 18 -46 15 -5 -4 -9 -2 -9 2 0 5 -14
17 -30 27 -17 9 -28 20 -26 24 2 4 -3 14 -12 22 -14 13 -15 12 -9 -3 7 -19 -3
-23 -20 -6 -6 6 -9 18 -5 27 4 11 1 14 -11 9 -11 -4 -17 -1 -17 8 0 7 -9 17
-20 20 -11 3 -20 12 -20 19 0 7 -13 27 -30 44 -16 18 -30 36 -30 41 0 13 -51
64 -57 58 -9 -10 68 -147 95 -167 4 -3 13 -17 21 -31 7 -15 33 -47 57 -72 24
-25 65 -69 91 -99 26 -29 49 -51 51 -49 2 2 35 -26 71 -63 37 -36 73 -66 80
-66 6 0 14 -7 18 -15 7 -19 73 -66 84 -59 4 2 10 -5 14 -16 4 -11 15 -20 26
-20 11 0 18 -4 14 -10 -3 -5 12 -14 34 -20 22 -6 43 -15 46 -20 4 -6 10 -8 15
-5 5 3 18 -3 30 -15 22 -22 45 -27 35 -7 -4 6 0 4 8 -6 8 -9 19 -17 26 -17 6
0 11 -11 11 -24 0 -13 6 -26 14 -29 9 -4 12 -14 9 -26 -4 -17 1 -23 26 -32 18
-6 30 -14 27 -17 -3 -3 6 -13 22 -22 19 -12 32 -14 45 -8 9 5 22 6 28 2 6 -3
5 3 -3 15 -15 24 -33 29 -25 7 4 -10 1 -13 -9 -9 -13 5 -14 8 -2 20 15 14 52
8 43 -7 -3 -5 5 -12 17 -16 12 -3 28 -13 36 -20 7 -8 19 -14 25 -14 7 0 6 5
-3 11 -11 8 -2 9 35 5 35 -5 55 -13 67 -29 10 -12 18 -18 18 -13 0 5 8 -1 19
-12 21 -25 36 -29 28 -7 -4 8 -1 17 5 21 7 5 8 2 3 -6 -5 -9 -4 -11 3 -6 7 4
12 15 13 24 0 14 2 14 6 2 8 -19 29 -40 40 -40 14 0 39 -34 51 -70 15 -40 15
-43 2 -35 -11 7 -3 -23 11 -41 5 -6 6 -13 3 -16 -5 -5 43 -106 55 -118 4 -3 6
-14 6 -25 0 -12 6 -19 14 -17 10 2 12 -4 7 -23 -4 -17 -3 -24 4 -20 5 3 10 -1
10 -10 0 -9 -3 -14 -7 -12 -5 3 -14 -1 -21 -9 -11 -12 105 -14 798 -14 641 0
810 3 811 13 3 44 7 60 18 67 10 6 10 9 1 15 -8 5 -6 11 6 19 19 14 10 41 -9
29 -7 -3 -5 2 5 13 23 27 49 94 41 107 -3 6 -1 7 5 3 7 -4 12 -1 12 8 0 9 5
16 11 16 5 0 8 4 4 9 -6 10 33 27 41 18 3 -3 7 -57 9 -121 4 -91 2 -115 -8
-110 -9 6 -9 4 1 -8 13 -16 6 -52 -8 -43 -5 3 -6 -4 -3 -15 5 -19 14 -20 194
-20 l189 0 0 1066 0 1066 -67 -58 c-38 -32 -70 -61 -73 -65 -14 -16 -41 -17
-47 -1 -8 21 -45 73 -93 129 -38 45 -94 122 -140 194 -30 46 -121 136 -209
207 -25 20 -66 56 -90 80 -25 23 -51 42 -59 42 -32 0 -123 -115 -177 -226 -30
-61 -67 -121 -81 -135 -14 -13 -45 -63 -69 -110 -38 -76 -78 -143 -96 -159
-10 -9 -49 -78 -84 -146 -40 -81 -64 -104 -106 -104 -69 0 -120 -22 -171 -73
-27 -27 -63 -72 -80 -98 -16 -27 -37 -49 -46 -49 -10 0 -45 -3 -79 -5 -68 -5
-71 -2 -50 48 8 18 15 37 15 42 4 22 15 81 19 100 2 11 7 40 10 65 3 25 11 52
17 60 33 45 86 154 86 179 0 12 4 21 9 21 4 0 8 10 8 23 -1 34 14 97 24 103
10 6 41 71 43 89 1 6 7 20 14 32 6 12 14 38 17 59 2 20 12 45 21 55 10 11 13
19 8 19 -5 0 -2 5 6 10 13 9 13 11 0 21 -13 9 -12 10 3 5 48 -15 67 -17 104
-7 22 6 48 21 59 32 l19 22 -58 -7 c-50 -7 -58 -5 -55 8 2 9 -8 22 -22 29 -25
13 -41 57 -20 57 6 0 22 25 36 55 14 30 30 57 35 61 5 3 7 15 4 25 -5 14 1 28
17 44 13 13 32 47 43 77 10 29 25 64 32 78 7 14 13 37 13 52 0 32 17 80 32 89
8 5 8 23 0 65 -7 31 -12 75 -12 96 0 22 -5 49 -12 61 -6 12 -12 54 -14 93 -2
100 -14 192 -30 236 -12 34 -52 121 -130 284 -41 85 -62 99 -152 99 -69 0 -77
2 -88 22 -6 13 -18 31 -28 42 -18 20 -176 101 -198 101 -7 0 -24 16 -38 36
-36 50 -135 126 -214 163 -37 18 -107 41 -154 51 -48 10 -100 21 -117 25 -19
4 -25 3 -17 -2z m121 -87 c24 -18 28 -25 18 -36 -10 -10 -8 -12 11 -7 12 3 20
2 17 -2 -2 -4 -25 -8 -49 -9 -83 -1 -128 -12 -124 -31 4 -13 -3 -16 -38 -16
-23 0 -46 3 -50 7 -4 4 -13 3 -19 -2 -7 -6 -25 -12 -41 -14 -16 -2 -37 -7 -46
-11 -31 -13 -19 9 33 59 39 39 64 53 112 66 87 25 139 23 176 -4z m83 10 c91
-24 163 -55 196 -84 18 -16 32 -31 32 -35 0 -7 -91 22 -107 35 -7 5 -21 7 -33
3 -14 -4 -32 3 -62 28 -24 19 -56 42 -73 50 -38 20 -21 21 47 3z m-875 -152
c-3 -3 -12 -4 -19 -1 -8 3 -5 6 6 6 11 1 17 -2 13 -5z m1642 -284 c33 -58 25
-65 -26 -25 -27 20 -61 41 -78 48 l-30 11 30 6 c56 10 81 1 104 -40z m-2 -74
c67 -61 50 -66 -21 -5 -32 27 -51 49 -43 49 8 0 37 -20 64 -44z m-2126 -83 c8
-10 9 -14 2 -10 -6 4 -14 3 -18 -3 -7 -12 -55 -14 -55 -2 0 14 23 32 41 32 9
0 23 -8 30 -17z m1684 -1183 c14 -5 31 -14 38 -20 6 -6 24 -19 40 -31 33 -25
35 -47 5 -44 -42 4 -43 5 -28 16 12 9 11 10 -8 6 -12 -3 -49 3 -81 13 -79 24
-85 28 -69 48 11 13 10 15 -5 9 -11 -4 -16 -3 -12 3 8 13 86 13 120 0z m-261
-139 c4 -5 -3 -7 -14 -4 -23 6 -26 13 -6 13 8 0 17 -4 20 -9z m66 -21 c0 -5
-7 -10 -16 -10 -8 0 -12 5 -9 10 3 6 10 10 16 10 5 0 9 -4 9 -10z m42 -9 c-1
-7 1 -10 6 -7 9 6 66 -43 59 -51 -14 -13 -100 53 -91 69 8 13 30 3 26 -11z
m-137 -447 c8 -4 22 -19 30 -34 14 -27 14 -28 -8 -23 -16 4 -18 2 -8 -5 8 -6
12 -19 8 -31 -3 -11 0 -19 5 -18 6 1 13 -4 16 -12 3 -9 0 -11 -8 -6 -8 5 -11
3 -8 -6 4 -13 -13 -39 -26 -39 -9 0 -43 36 -55 58 -8 14 -5 22 11 36 13 11 18
25 15 38 -5 18 0 48 8 48 2 0 11 -3 20 -6z m-621 -353 c13 -5 16 -10 8 -15 -6
-3 -8 -14 -5 -23 5 -12 3 -14 -7 -8 -9 6 -11 4 -5 -5 4 -7 2 -16 -6 -21 -11
-7 -10 -9 3 -9 11 0 15 -5 12 -15 -5 -11 1 -15 18 -15 14 0 28 -3 32 -7 3 -4
12 -8 19 -9 7 0 37 -4 67 -8 30 -5 73 -10 94 -12 42 -4 105 -23 120 -36 6 -4
18 -8 28 -8 10 0 21 -7 24 -15 4 -8 11 -12 16 -9 6 4 8 1 6 -7 -3 -8 -12 -13
-21 -13 -9 1 -15 -2 -12 -6 6 -10 -15 -60 -25 -60 -3 0 -12 6 -19 13 -11 10
-13 10 -7 0 4 -7 2 -13 -4 -13 -7 0 -9 -7 -6 -16 5 -12 2 -15 -10 -10 -15 6
-15 4 -3 -11 8 -9 9 -14 3 -10 -7 4 -14 1 -17 -7 -3 -7 -15 -16 -26 -19 -13
-3 -19 -1 -15 5 4 6 1 8 -7 6 -8 -3 -13 -11 -11 -17 2 -9 -3 -9 -18 -1 -11 6
-20 15 -20 20 0 5 -8 6 -17 3 -16 -6 -17 -5 -3 13 14 17 14 18 -2 6 -9 -8 -15
-19 -12 -27 3 -7 1 -16 -5 -20 -6 -3 -11 -1 -11 4 0 6 -5 11 -11 11 -5 0 -7
-4 -4 -10 9 -15 -2 -12 -19 5 -13 13 -16 13 -30 0 -17 -17 -56 -20 -56 -4 0 5
-4 8 -9 4 -5 -3 -16 2 -24 10 -9 8 -26 15 -39 14 -13 0 -17 -3 -10 -6 6 -2 10
-9 6 -14 -3 -5 -13 -5 -25 1 -11 6 -25 8 -31 4 -7 -4 -8 -3 -4 4 11 17 -10 14
-28 -4 -17 -17 -36 -11 -36 12 0 8 -4 14 -10 14 -5 0 -10 -5 -10 -12 0 -6 -9
-2 -21 10 -11 12 -17 27 -14 32 3 6 0 10 -8 10 -8 0 -24 20 -36 45 -17 36 -19
49 -9 69 6 14 14 23 19 21 21 -13 39 9 39 49 0 22 7 49 15 59 7 11 11 26 8 35
-3 13 -1 13 11 -2 10 -12 16 -15 16 -7 0 9 9 12 25 9 13 -3 22 -1 19 3 -3 5
-2 9 3 10 22 2 45 8 51 13 7 8 43 6 66 -3z m95 -25 c9 -10 8 -15 -3 -19 -8 -3
-16 2 -19 14 -6 22 6 25 22 5z m38 -18 c-3 -8 -6 -5 -6 6 -1 11 2 17 5 13 3
-3 4 -12 1 -19z m588 -556 c8 -31 22 -80 31 -108 19 -58 14 -87 -13 -77 -15 6
-16 5 -3 -9 8 -9 17 -12 18 -7 7 17 22 9 22 -12 0 -11 -4 -17 -10 -14 -6 4
-10 -7 -10 -26 0 -27 -2 -30 -15 -19 -13 10 -13 15 -3 21 14 9 5 22 -18 25
-11 2 -12 -1 -4 -11 8 -9 8 -15 1 -20 -6 -3 -16 5 -23 19 -11 26 -28 35 -28
15 0 -6 4 -18 10 -28 7 -14 5 -23 -10 -36 -21 -19 -28 -7 -8 13 9 9 8 12 -4
12 -14 0 -16 7 -11 37 6 33 4 36 -13 28 -37 -15 -64 -17 -64 -5 0 7 7 10 15 7
8 -4 17 -2 20 3 4 6 -5 10 -19 10 -14 0 -28 -4 -31 -10 -11 -18 -35 -11 -35
10 0 11 -4 20 -10 20 -5 0 -7 -8 -4 -17 5 -14 4 -15 -4 -4 -11 15 6 81 20 81
5 0 7 -9 3 -20 -7 -22 12 -63 25 -55 5 3 7 12 4 19 -3 8 -1 17 5 21 14 8 14
26 0 22 -31 -6 -14 28 40 85 34 35 61 66 61 71 0 4 8 15 18 25 21 23 28 14 47
-66z m-760 -2 c3 -5 1 -10 -4 -10 -6 0 -11 5 -11 10 0 6 2 10 4 10 3 0 8 -4
11 -10z m19 -36 c5 -14 4 -15 -9 -4 -17 14 -19 20 -6 20 5 0 12 -7 15 -16z
m566 -94 c0 -5 -4 -10 -10 -10 -5 0 -10 5 -10 10 0 6 5 10 10 10 6 0 10 -4 10
-10z m-70 -42 c0 -4 -4 -8 -9 -8 -6 0 -12 4 -15 8 -3 5 1 9 9 9 8 0 15 -4 15
-9z m-53 -41 c-5 -14 18 -39 27 -29 4 3 4 -1 0 -11 -7 -20 -14 -21 -38 -4 -15
11 -17 17 -7 35 12 23 26 30 18 9z m40 -9 c-3 -8 -6 -5 -6 6 -1 11 2 17 5 13
3 -3 4 -12 1 -19z m-64 -48 c9 -11 13 -20 7 -20 -5 0 -14 9 -20 20 -6 11 -9
20 -8 20 2 0 11 -9 21 -20z m312 -10 c3 -5 1 -10 -4 -10 -6 0 -11 5 -11 10 0
6 2 10 4 10 3 0 8 -4 11 -10z m-328 -25 c0 -8 -4 -12 -9 -9 -5 3 -6 10 -3 15
9 13 12 11 12 -6z m91 -9 c-7 -8 -17 -12 -22 -9 -4 3 -2 9 5 14 22 13 31 11
17 -5z m272 -12 c0 -14 -4 -23 -9 -20 -5 3 -7 15 -4 26 7 28 13 25 13 -6z
m-130 -64 c0 -5 -5 -10 -11 -10 -5 0 -7 5 -4 10 3 6 8 10 11 10 2 0 4 -4 4
-10z m-376 -145 c-4 -8 -11 -15 -16 -15 -6 0 -5 6 2 15 7 8 14 15 16 15 2 0 1
-7 -2 -15z"/>
<path d="M2177 4299 c7 -7 15 -10 18 -7 3 3 -2 9 -12 12 -14 6 -15 5 -6 -5z"/>
<path d="M2506 1897 c3 -10 9 -15 12 -12 3 3 0 11 -7 18 -10 9 -11 8 -5 -6z"/>
<path d="M1420 4320 c0 -5 5 -10 10 -10 6 0 10 5 10 10 0 6 -4 10 -10 10 -5 0
-10 -4 -10 -10z"/>
<path d="M1780 2980 c-8 -5 -25 -10 -37 -10 -29 0 -21 -23 15 -41 44 -22 45
-22 37 -8 -5 8 0 6 11 -3 16 -14 23 -15 34 -5 8 7 11 8 7 1 -4 -7 1 -15 11
-19 16 -8 25 -9 67 -14 11 -1 31 -11 45 -22 24 -20 24 -21 5 -35 -11 -9 -44
-14 -84 -14 -85 0 -74 -9 19 -15 47 -3 79 -10 89 -20 14 -13 11 -15 -26 -15
-23 0 -43 5 -45 12 -3 8 -12 9 -34 1 -17 -6 -37 -7 -45 -3 -8 5 -34 5 -59 0
-25 -5 -46 -7 -48 -6 -7 8 12 35 26 39 10 2 -2 2 -26 -1 -34 -3 -41 -1 -37 10
3 8 2 24 -2 35 -8 21 -8 21 -26 -3 -10 -13 -13 -24 -7 -24 6 0 8 -5 5 -10 -4
-6 -1 -17 5 -25 6 -8 9 -19 5 -26 -4 -6 4 -3 19 6 l26 17 -15 -28 c-14 -27
-13 -29 10 -44 14 -8 25 -18 25 -21 0 -4 10 -5 22 -1 13 3 19 1 15 -5 -4 -6 0
-16 8 -23 12 -10 15 -9 15 6 0 11 5 26 10 34 7 11 8 7 4 -15 -6 -30 -5 -31 58
-45 69 -15 111 -15 116 0 4 12 22 3 22 -11 0 -6 -5 -7 -11 -3 -8 4 -9 0 -4
-15 3 -11 3 -21 -2 -22 -45 -4 -61 -3 -56 4 2 4 -7 5 -22 1 -21 -5 -33 0 -56
22 l-30 28 5 -24 c2 -14 5 -29 5 -33 1 -5 6 -5 11 -2 6 3 10 -1 10 -10 0 -11
-6 -14 -25 -9 -19 5 -24 3 -20 -7 15 -39 226 -67 258 -35 8 8 32 19 55 25 30
8 40 16 36 26 -4 8 -1 15 5 15 6 0 11 -5 11 -11 0 -6 12 -1 26 10 15 12 31 21
36 21 13 0 38 26 38 39 0 6 5 11 11 11 6 0 9 7 5 15 -3 8 -1 15 5 15 6 0 7 5
4 10 -3 6 -1 10 4 10 6 0 11 6 11 14 0 7 7 20 16 27 20 16 38 58 35 82 -1 9 3
17 10 17 8 0 8 4 -1 15 -7 8 -19 15 -27 15 -8 0 -11 4 -8 10 3 6 -1 7 -9 4 -9
-3 -16 -1 -16 5 0 6 -10 11 -22 10 -22 0 -22 -1 -3 -9 11 -5 14 -9 7 -9 -25
-2 -54 20 -48 36 5 12 3 13 -7 5 -7 -6 -24 -9 -38 -7 -13 3 -35 7 -49 9 -14 3
-42 8 -64 11 -21 3 -42 8 -46 10 -5 3 -11 1 -15 -5 -4 -6 -10 -8 -15 -5 -5 3
-20 1 -35 -5 -15 -6 -32 -7 -38 -3 -6 3 -29 8 -50 9 -22 2 -44 9 -48 16 -7 10
-12 11 -29 1 -11 -7 -23 -13 -27 -13 -5 0 -2 4 6 9 7 5 10 14 7 20 -9 13 -16
14 -36 1z m600 -120 c0 -5 -5 -10 -11 -10 -5 0 -7 5 -4 10 3 6 8 10 11 10 2 0
4 -4 4 -10z m-530 -190 c0 -5 -2 -10 -4 -10 -3 0 -8 5 -11 10 -3 6 -1 10 4 10
6 0 11 -4 11 -10z m130 -120 c8 -5 12 -11 9 -14 -3 -3 -14 1 -25 9 -21 16 -8
20 16 5z"/>
<path d="M2483 2356 c-7 -8 -17 -16 -24 -18 -8 -3 -9 -9 -4 -17 4 -8 9 -29 10
-47 2 -43 10 -50 32 -33 16 13 17 12 5 -3 -8 -9 -10 -23 -6 -29 4 -8 3 -9 -4
-5 -7 4 -12 2 -12 -3 0 -6 5 -11 10 -11 6 0 10 -7 10 -16 0 -8 5 -12 11 -9 6
4 9 0 7 -8 -2 -9 1 -17 6 -19 5 -2 10 7 11 19 1 12 -2 20 -7 17 -5 -3 -8 12
-7 33 1 21 -4 51 -10 67 -9 21 -9 32 0 42 9 11 6 14 -17 15 -17 1 -22 3 -11 6
9 2 17 11 17 19 0 17 -2 17 -17 0z"/>
<path d="M2805 1880 c-3 -5 -1 -10 4 -10 6 0 11 5 11 10 0 6 -2 10 -4 10 -3 0
-8 -4 -11 -10z"/>
<path d="M1888 1873 c12 -2 30 -2 40 0 9 3 -1 5 -23 4 -22 0 -30 -2 -17 -4z"/>
<path d="M1440 1550 c0 -5 5 -10 11 -10 5 0 7 5 4 10 -3 6 -8 10 -11 10 -2 0
-4 -4 -4 -10z"/>
<path d="M1180 1456 c0 -2 7 -6 15 -10 8 -3 15 -1 15 4 0 6 -7 10 -15 10 -8 0
-15 -2 -15 -4z"/>
<path d="M2156 454 c-4 -10 -4 -15 0 -11 4 4 13 2 19 -3 9 -7 17 -5 26 7 12
15 12 16 -5 10 -11 -5 -22 -3 -26 3 -5 8 -10 5 -14 -6z"/>
</g>
</svg>
